#!OML:ASF I:\golf\golf\golf 2\Subject 1\2002-09-07\Subject1.ASF
:FULLY-SPECIFIED
:DEGREES
167
root -6.00582 17.7796 3.34601 2.36047 30.2111 -9.18813
lowerback 0.401689 -10.2586 -15.7187
upperback -2.35251 -13.7779 -3.81828
thorax -0.08655 -6.63219 4.16708
lowerneck -5.23114 22.4938 2.66992
upperneck 13.0334 32.5192 -12.5615
head 7.40742 14.8788 -1.18147
rclavicle 9.14409e-014 9.54166e-015
rhumerus 28.7085 -28.6631 -54.6269
rradius 113.837
rwrist 6.15216
rhand -62.7049 31.9659
rfingers 7.12502
rthumb -34.7229 5.34555
lclavicle 9.14409e-014 9.54166e-015
lhumerus 116.633 -38.6899 41.9129
lradius 43.6349
lwrist -0.296882
lhand -24.6442 -3.53602
lfingers 7.12502
lthumb -178.145 -153.564
rfemur -27.3126 20.6374 26.9421
rtibia 32.6536
rfoot -1.91729 29.6155
rtoes 36.4425
lfemur 1.04164 20.4802 8.06066
ltibia 38.1756
lfoot 15.1734 13.7693
ltoes -30.4989
168
root -6.00111 17.7851 3.34599 2.49696 30.2043 -8.97468
lowerback 0.425467 -10.2548 -15.8533
upperback -2.51524 -13.7965 -3.89943
thorax -0.263551 -6.61844 4.17267
lowerneck -4.51017 22.4481 3.03098
upperneck 12.9162 32.4217 -12.6923
head 7.32366 14.888 -1.3458
rclavicle 1.16488e-013 -6.36111e-015
rhumerus 28.3126 -28.6963 -54.0454
rradius 113.835
rwrist 6.06829
rhand -62.8583 31.0893
rfingers 7.12502
rthumb -34.8685 4.50264
lclavicle 1.16488e-013 -6.36111e-015
lhumerus 116.449 -38.9266 42.1879
lradius 43.7175
lwrist -0.255757
lhand -24.594 -3.4612
lfingers 7.12502
lthumb -178.096 -153.49
rfemur -27.3316 20.6902 26.6988
rtibia 32.6339
rfoot -2.03717 29.6123
rtoes 36.1243
lfemur 1.03716 20.4021 7.83357
ltibia 38.1295
lfoot 15.4482 13.3823
ltoes -31.6119
169
root -5.99798 17.786 3.34431 2.55887 30.1872 -8.94171
lowerback 0.437567 -10.2565 -15.8397
upperback -2.44127 -13.7927 -3.88737
thorax -0.190992 -6.62544 4.17173
lowerneck -4.90335 22.4981 2.85792
upperneck 12.9784 32.4992 -12.5859
head 7.36795 14.8986 -1.24593
rclavicle -1.94809e-014 1.59028e-014
rhumerus 28.4733 -28.8708 -53.7799
rradius 113.759
rwrist 5.83138
rhand -62.9292 30.956
rfingers 7.12502
rthumb -34.9358 4.38501
lclavicle -1.94809e-014 1.59028e-014
lhumerus 116.567 -38.7553 42.2387
lradius 43.8417
lwrist -0.149297
lhand -24.5948 -3.33194
lfingers 7.12502
lthumb -178.097 -153.361
rfemur -27.3641 20.7696 26.6232
rtibia 32.5933
rfoot -2.01776 29.5316
rtoes 36.0097
lfemur 1.02132 20.4193 7.81207
ltibia 38.0881
lfoot 15.7257 13.0106
ltoes -32.521
170
root -5.99386 17.7865 3.34007 2.53468 30.1594 -9.05321
lowerback 0.448973 -10.216 -15.6613
upperback -2.3296 -13.7294 -3.87308
thorax -0.122777 -6.60789 4.09754
lowerneck -5.35102 22.5124 2.73465
upperneck 13.1063 32.5394 -12.481
head 7.44762 14.8852 -1.14419
rclavicle -3.49861e-014 -3.18055e-014
rhumerus 28.6237 -29.1103 -53.5124
rradius 113.667
rwrist 5.32825
rhand -62.9572 31.2183
rfingers 7.12502
rthumb -34.9623 4.65348
lclavicle -3.49861e-014 -3.18055e-014
lhumerus 116.788 -38.5648 42.1747
lradius 43.9216
lwrist -0.165063
lhand -24.5652 -3.14781
lfingers 7.12502
lthumb -178.069 -153.177
rfemur -27.3769 20.7968 26.6933
rtibia 32.5282
rfoot -1.8795 29.5301
rtoes 36.1925
lfemur 1.03219 20.4814 7.94996
ltibia 38.055
lfoot 15.7871 12.787
ltoes -32.5807
171
root -5.98876 17.7915 3.33299 2.60206 30.1492 -9.00575
lowerback 0.495855 -10.1405 -15.5944
upperback -2.31778 -13.6384 -3.94443
thorax -0.184189 -6.56036 4.01273
lowerneck -5.45187 22.451 2.90654
upperneck 13.3059 32.4697 -12.4083
head 7.5378 14.8439 -1.12321
rclavicle 1.94809e-014 -3.18055e-015
rhumerus 28.4634 -29.3736 -53.1686
rradius 113.584
rwrist 4.85955
rhand -62.9779 31.1334
rfingers 7.12502
rthumb -34.982 4.57313
lclavicle 1.94809e-014 -3.18055e-015
lhumerus 116.99 -38.5796 42.078
lradius 43.8617
lwrist -0.178726
lhand -24.5619 -3.12184
lfingers 7.12502
lthumb -178.065 -153.151
rfemur -27.4114 20.7474 26.6017
rtibia 32.4422
rfoot -1.74209 29.6297
rtoes 36.3299
lfemur 1.00824 20.4092 7.87179
ltibia 38.039
lfoot 15.3833 13.0145
ltoes -31.5393
172
root -5.98364 17.7972 3.32502 2.67142 30.1591 -8.95626
lowerback 0.560162 -10.0961 -15.5952
upperback -2.30357 -13.592 -3.95402
thorax -0.214953 -6.53626 4.01949
lowerneck -5.6077 22.4174 2.94858
upperneck 13.4602 32.4396 -12.3388
head 7.60577 14.8164 -1.08506
rclavicle 5.52621e-014 3.18055e-015
rhumerus 28.417 -29.5475 -52.9024
rradius 113.461
rwrist 4.36189
rhand -63.0344 30.9195
rfingers 7.12502
rthumb -35.0356 4.3718
lclavicle 5.52621e-014 3.18055e-015
lhumerus 117.113 -38.5277 42.0736
lradius 43.7281
lwrist -0.138322
lhand -24.5529 -3.0366
lfingers 7.12502
lthumb -178.057 -153.066
rfemur -27.4423 20.7703 26.4906
rtibia 32.3566
rfoot -1.72092 29.6242
rtoes 36.2563
lfemur 0.970548 20.3075 7.77786
ltibia 38.0141
lfoot 15.238 12.909
ltoes -31.607
173
root -5.97925 17.7991 3.317 2.65151 30.1817 -9.04084
lowerback 0.616251 -10.0693 -15.5663
upperback -2.27286 -13.5655 -3.87309
thorax -0.203829 -6.52689 4.0968
lowerneck -5.79621 22.4084 2.81792
upperneck 13.6015 32.4353 -12.1783
head 7.63386 14.802 -1.00696
rclavicle 2.78299e-014 6.04305e-014
rhumerus 28.4759 -29.569 -52.6856
rradius 113.354
rwrist 3.79465
rhand -63.0913 30.2012
rfingers 7.12502
rthumb -35.0895 3.66613
lclavicle 2.78299e-014 6.04305e-014
lhumerus 117.074 -38.447 42.2444
lradius 43.588
lwrist -0.109595
lhand -24.364 -3.16786
lfingers 7.12502
lthumb -177.874 -153.199
rfemur -27.444 20.8067 26.5183
rtibia 32.2786
rfoot -1.63785 29.5522
rtoes 36.3703
lfemur 0.957995 20.338 7.8656
ltibia 37.9779
lfoot 15.474 12.2298
ltoes -33.0291
174
root -5.97575 17.7992 3.3069 2.63787 30.2433 -9.08194
lowerback 0.699864 -10.0484 -15.5633
upperback -2.26816 -13.5553 -3.81937
thorax -0.234369 -6.5208 4.16624
lowerneck -5.82143 22.4061 2.73842
upperneck 13.7377 32.434 -12.0245
head 7.64318 14.8003 -0.953817
rclavicle 8.66701e-014 2.54444e-014
rhumerus 28.518 -29.5497 -52.6111
rradius 113.272
rwrist 3.22089
rhand -63.1182 29.3421
rfingers 7.12502
rthumb -35.115 2.81293
lclavicle 8.66701e-014 2.54444e-014
lhumerus 116.916 -38.4325 42.4114
lradius 43.4675
lwrist -0.200133
lhand -23.9411 -3.19886
lfingers 7.12502
lthumb -177.466 -153.234
rfemur -27.4602 20.8124 26.497
rtibia 32.2135
rfoot -1.46092 29.4955
rtoes 36.7047
lfemur 0.954689 20.2851 7.88633
ltibia 37.9332
lfoot 15.2462 12.0485
ltoes -33.1487
